<svg width="14" height="17" viewBox="0 0 14 17" fill="none" xmlns="http://www.w3.org/2000/svg">
<path d="M1.59341 16.9167C1.19045 16.9167 0.849373 16.7709 0.570171 16.4792C0.290968 16.1876 0.151367 15.8313 0.151367 15.4103V4.25653C0.151367 3.83559 0.290968 3.47928 0.570171 3.18762C0.849373 2.89595 1.19045 2.75012 1.59341 2.75012H2.69795V0.987305H3.92518V2.75012H9.96944V0.987305H11.166V2.75012H12.2705C12.6735 2.75012 13.0146 2.89595 13.2938 3.18762C13.573 3.47928 13.7126 3.83559 13.7126 4.25653V15.4103C13.7126 15.8313 13.573 16.1876 13.2938 16.4792C13.0146 16.7709 12.6735 16.9167 12.2705 16.9167H1.59341ZM1.59341 15.6668H12.2705C12.3319 15.6668 12.3882 15.6401 12.4393 15.5866C12.4905 15.5332 12.516 15.4744 12.516 15.4103V7.58987H1.34793V15.4103C1.34793 15.4744 1.3735 15.5332 1.42463 15.5866C1.47578 15.6401 1.53204 15.6668 1.59341 15.6668Z" fill="#94A3B8"/>
</svg>
