<svg width="18" height="18" viewBox="0 0 18 18" fill="none" xmlns="http://www.w3.org/2000/svg">
<mask id="mask0_1263_9973" style="mask-type:alpha" maskUnits="userSpaceOnUse" x="0" y="0" width="18" height="18">
<rect width="18" height="18" fill="#D9D9D9"/>
</mask>
<g mask="url(#mask0_1263_9973)">
<path d="M3.875 8.25L8 1.5L12.125 8.25H3.875ZM12.125 16.5C11.1875 16.5 10.3906 16.1719 9.73438 15.5156C9.07812 14.8594 8.75 14.0625 8.75 13.125C8.75 12.1875 9.07812 11.3906 9.73438 10.7344C10.3906 10.0781 11.1875 9.75 12.125 9.75C13.0625 9.75 13.8594 10.0781 14.5156 10.7344C15.1719 11.3906 15.5 12.1875 15.5 13.125C15.5 14.0625 15.1719 14.8594 14.5156 15.5156C13.8594 16.1719 13.0625 16.5 12.125 16.5ZM1.25 16.125V10.125H7.25V16.125H1.25ZM12.125 15C12.65 15 13.0938 14.8187 13.4562 14.4562C13.8187 14.0937 14 13.65 14 13.125C14 12.6 13.8187 12.1562 13.4562 11.7937C13.0938 11.4312 12.65 11.25 12.125 11.25C11.6 11.25 11.1562 11.4312 10.7938 11.7937C10.4313 12.1562 10.25 12.6 10.25 13.125C10.25 13.65 10.4313 14.0937 10.7938 14.4562C11.1562 14.8187 11.6 15 12.125 15ZM2.75 14.625H5.75V11.625H2.75V14.625ZM6.5375 6.75H9.4625L8 4.3875L6.5375 6.75Z" fill="#94A3B8"/>
</g>
</svg>
