<svg width="17" height="18" viewBox="0 0 17 18" fill="none" xmlns="http://www.w3.org/2000/svg">
<path d="M9.44444 5.85H9.29445V6V8V8.15H9.44444H13.2222C13.4301 8.15 13.6313 8.23734 13.781 8.39589C13.931 8.55472 14.0167 8.77189 14.0167 9V12V12.15H14.1667H16.0556C16.2634 12.15 16.4646 12.2373 16.6143 12.3959C16.7643 12.5547 16.85 12.7719 16.85 13V17C16.85 17.2281 16.7643 17.4453 16.6143 17.6041C16.4646 17.7627 16.2634 17.85 16.0556 17.85H10.3889C10.181 17.85 9.97985 17.7627 9.83012 17.6041C9.68011 17.4453 9.59444 17.2281 9.59444 17V13C9.59444 12.7719 9.68011 12.5547 9.83012 12.3959C9.97985 12.2373 10.181 12.15 10.3889 12.15H12.2778H12.4278V12V10V9.85H12.2778H4.72222H4.57222V10V12V12.15H4.72222H6.61111C6.81895 12.15 7.02015 12.2373 7.16988 12.3959C7.31989 12.5547 7.40556 12.7719 7.40556 13V17C7.40556 17.2281 7.31989 17.4453 7.16988 17.6041C7.02015 17.7627 6.81896 17.85 6.61111 17.85H0.944444C0.7366 17.85 0.535408 17.7627 0.385674 17.6041C0.235663 17.4453 0.15 17.2281 0.15 17V13C0.15 12.7719 0.235663 12.5547 0.385673 12.3959C0.535409 12.2373 0.736602 12.15 0.944444 12.15H2.83333H2.98333V12V9C2.98333 8.77189 3.069 8.55472 3.21901 8.39589C3.36874 8.23734 3.56993 8.15 3.77778 8.15H7.55556H7.70556V8V6V5.85H7.55556H5.66667C5.45882 5.85 5.25763 5.76266 5.1079 5.60411C4.95789 5.44528 4.87222 5.22811 4.87222 5V1C4.87222 0.771887 4.95789 0.554721 5.1079 0.395887C5.25763 0.237343 5.45882 0.15 5.66667 0.15H11.3333C11.5412 0.15 11.7424 0.237343 11.8921 0.395887C12.0421 0.554721 12.1278 0.771887 12.1278 1V5C12.1278 5.22811 12.0421 5.44528 11.8921 5.60411C11.7424 5.76266 11.5412 5.85 11.3333 5.85H9.44444ZM5.81667 14V13.85H5.66667H1.88889H1.73889V14V16V16.15H1.88889H5.66667H5.81667V16V14ZM15.2611 14V13.85H15.1111H11.3333H11.1833V14V16V16.15H11.3333H15.1111H15.2611V16V14ZM10.5389 2V1.85H10.3889H6.61111H6.46111V2V4V4.15H6.61111H10.3889H10.5389V4V2Z" fill="#64748B" stroke="white" stroke-width="0.3"/>
</svg>
