<svg width="18" height="18" viewBox="0 0 18 18" fill="none" xmlns="http://www.w3.org/2000/svg">
<mask id="mask0_1263_9955" style="mask-type:alpha" maskUnits="userSpaceOnUse" x="0" y="0" width="18" height="18">
<rect width="18" height="18" fill="#D9D9D9"/>
</mask>
<g mask="url(#mask0_1263_9955)">
<path d="M9.09424 15.75L0.0942383 6.75C1.28174 5.5375 2.65361 4.60938 4.20986 3.96563C5.76611 3.32188 7.39424 3 9.09424 3C10.7942 3 12.4224 3.32188 13.9786 3.96563C15.5349 4.60938 16.9067 5.5375 18.0942 6.75L17.3442 7.5C16.9942 7.05 16.5599 6.6875 16.0411 6.4125C15.5224 6.1375 14.9567 6 14.3442 6C13.3067 6 12.4224 6.36563 11.6911 7.09688C10.9599 7.82812 10.5942 8.7125 10.5942 9.75C10.5942 10.3625 10.7317 10.9281 11.0067 11.4469C11.2817 11.9656 11.6442 12.4 12.0942 12.75L9.09424 15.75ZM14.3442 15C14.1317 15 13.9474 14.9219 13.7911 14.7656C13.6349 14.6094 13.5567 14.425 13.5567 14.2125C13.5567 14 13.6349 13.8156 13.7911 13.6594C13.9474 13.5031 14.1317 13.425 14.3442 13.425C14.5567 13.425 14.7411 13.5031 14.8974 13.6594C15.0536 13.8156 15.1317 14 15.1317 14.2125C15.1317 14.425 15.0536 14.6094 14.8974 14.7656C14.7411 14.9219 14.5567 15 14.3442 15ZM13.7817 12.6C13.7817 12.125 13.8442 11.7562 13.9692 11.4937C14.0942 11.2312 14.363 10.8938 14.7755 10.4813C15.038 10.2188 15.2067 10.0219 15.2817 9.89062C15.3567 9.75938 15.3942 9.59375 15.3942 9.39375C15.3942 9.16875 15.3067 8.97188 15.1317 8.80313C14.9567 8.63438 14.7255 8.55 14.438 8.55C14.1755 8.55 13.9317 8.63438 13.7067 8.80313C13.4817 8.97188 13.3192 9.2 13.2192 9.4875L12.2067 9.075C12.3567 8.6 12.6317 8.21875 13.0317 7.93125C13.4317 7.64375 13.9005 7.5 14.438 7.5C15.0505 7.5 15.5505 7.68125 15.938 8.04375C16.3255 8.40625 16.5192 8.86875 16.5192 9.43125C16.5192 9.71875 16.4567 9.975 16.3317 10.2C16.2067 10.425 15.9692 10.7125 15.6192 11.0625C15.3192 11.3625 15.1317 11.6031 15.0567 11.7844C14.9817 11.9656 14.9442 12.2375 14.9442 12.6H13.7817Z" fill="#94A3B8"/>
</g>
</svg>
