<svg width="24" height="24" viewBox="0 0 24 24" fill="none" xmlns="http://www.w3.org/2000/svg">
<mask id="mask0_1263_9979" style="mask-type:alpha" maskUnits="userSpaceOnUse" x="0" y="0" width="24" height="24">
<rect width="24" height="24" fill="#D9D9D9"/>
</mask>
<g mask="url(#mask0_1263_9979)">
<path d="M3 17V15H17V17H3ZM3 13V11H17V13H3ZM3 9V7H17V9H3ZM20 17C19.7167 17 19.4792 16.9042 19.2875 16.7125C19.0958 16.5208 19 16.2833 19 16C19 15.7167 19.0958 15.4792 19.2875 15.2875C19.4792 15.0958 19.7167 15 20 15C20.2833 15 20.5208 15.0958 20.7125 15.2875C20.9042 15.4792 21 15.7167 21 16C21 16.2833 20.9042 16.5208 20.7125 16.7125C20.5208 16.9042 20.2833 17 20 17ZM20 13C19.7167 13 19.4792 12.9042 19.2875 12.7125C19.0958 12.5208 19 12.2833 19 12C19 11.7167 19.0958 11.4792 19.2875 11.2875C19.4792 11.0958 19.7167 11 20 11C20.2833 11 20.5208 11.0958 20.7125 11.2875C20.9042 11.4792 21 11.7167 21 12C21 12.2833 20.9042 12.5208 20.7125 12.7125C20.5208 12.9042 20.2833 13 20 13ZM20 9C19.7167 9 19.4792 8.90417 19.2875 8.7125C19.0958 8.52083 19 8.28333 19 8C19 7.71667 19.0958 7.47917 19.2875 7.2875C19.4792 7.09583 19.7167 7 20 7C20.2833 7 20.5208 7.09583 20.7125 7.2875C20.9042 7.47917 21 7.71667 21 8C21 8.28333 20.9042 8.52083 20.7125 8.7125C20.5208 8.90417 20.2833 9 20 9Z" fill="#94A3B8"/>
</g>
</svg>
